<?xml version="1.0" encoding="UTF-8"?>
<svg width="410px" height="410px" viewBox="0 0 410 410" version="1.1" xmlns="http://www.w3.org/2000/svg" xmlns:xlink="http://www.w3.org/1999/xlink">
    <!-- Generator: Sketch 49.3 (51167) - http://www.bohemiancoding.com/sketch -->
    <title>statue-of-liberty (1)</title>
    <desc>Created with Sketch.</desc>
    <defs>
        <polygon id="path-1" points="0.06 0.401 409.598 0.401 409.598 409.998 0.06 409.998"></polygon>
    </defs>
    <g id="Page-1" stroke="none" stroke-width="1" fill="none" fill-rule="evenodd">
        <g id="statue-of-liberty-(1)" transform="translate(0.000000, -1.000000)">
            <g id="Group-4" transform="translate(0.000000, 1.000000)">
                <mask id="mask-2" fill="white">
                    <use xlink:href="#path-1"></use>
                </mask>
                <g id="Clip-2"></g>
                <path d="M227.281,141.76 L234.105,148.588 C236.777,151.256 241.09,151.256 243.758,148.588 C246.43,145.916 246.43,141.604 243.758,138.932 L241.758,136.932 L266.238,112.452 L283.895,130.108 L247.762,166.241 C246.477,167.518 245.762,169.256 245.762,171.065 L245.762,341.733 C245.762,345.502 248.82,348.561 252.586,348.561 C256.355,348.561 259.414,345.502 259.414,341.733 L259.414,173.893 L298.371,134.932 C301.043,132.264 301.043,127.948 298.371,125.28 L271.066,97.975 C268.398,95.303 264.082,95.303 261.414,97.975 L227.281,132.108 C224.609,134.776 224.609,139.092 227.281,141.76 Z" id="Fill-1" fill="#000000" mask="url(#mask-2)"></path>
                <path d="M402.773,396.346 L273.066,396.346 L273.066,369.041 L279.895,369.041 C283.66,369.041 286.719,365.983 286.719,362.213 C286.719,358.444 283.66,355.389 279.895,355.389 L163.84,355.389 L163.84,214.854 L175.492,203.205 L175.5,203.198 L204.801,173.893 L204.801,263.815 L179.492,289.112 L179.488,289.12 L172.668,295.948 C169.996,298.616 169.996,302.932 172.668,305.6 C173.996,306.932 175.746,307.6 177.492,307.6 L177.492,341.733 C177.492,345.502 180.551,348.561 184.32,348.561 C188.086,348.561 191.145,345.502 191.145,341.733 L191.145,296.772 L204.801,283.12 L204.801,341.733 C204.801,345.502 207.859,348.561 211.625,348.561 C215.395,348.561 218.453,345.502 218.453,341.733 L218.453,255.811 L236.934,237.334 C239.602,234.663 239.602,230.35 236.934,227.678 C234.262,225.01 229.949,225.01 227.281,227.678 L218.453,236.506 L218.453,130.108 C218.453,126.338 215.395,123.28 211.625,123.28 C207.859,123.28 204.801,126.338 204.801,130.108 L204.801,154.588 L177.492,181.893 L177.492,130.108 C177.492,128.299 176.777,126.557 175.492,125.28 L155.859,105.647 C154.461,102.541 150.188,92.252 150.188,82.323 C150.188,72.491 154.078,50.651 155.922,40.842 C168.031,38.842 184.32,30.295 184.32,7.229 C184.32,3.459 181.262,0.401 177.496,0.401 C165.828,0.401 143.922,7.397 143.406,33.627 C142.637,37.53 136.535,68.764 136.535,82.319 C136.535,97.409 143.777,112.065 144.078,112.678 C144.41,113.334 144.84,113.936 145.359,114.455 L163.84,132.932 L163.84,195.549 L152.188,207.202 C150.902,208.475 150.188,210.217 150.188,212.026 L150.188,355.385 L129.707,355.385 C125.938,355.385 122.879,358.444 122.879,362.213 C122.879,365.979 125.938,369.038 129.707,369.038 L136.535,369.038 L136.535,396.346 L6.828,396.346 C3.059,396.346 0,399.405 0,403.17 C0,406.94 3.059,409.998 6.828,409.998 L402.773,409.998 C406.539,409.998 409.598,406.94 409.598,403.174 C409.598,399.405 406.543,396.346 402.773,396.346 Z M169.348,15.53 C167.145,21.659 162.551,24.709 158.332,26.225 C160.535,20.096 165.137,17.041 169.348,15.53 Z M259.414,396.346 L211.629,396.346 L211.629,389.522 C211.629,385.752 208.57,382.694 204.801,382.694 C201.031,382.694 197.973,385.752 197.973,389.522 L197.973,396.346 L150.188,396.346 L150.188,369.041 L259.414,369.041 L259.414,396.346 Z" id="Fill-3" fill="#000000" mask="url(#mask-2)"></path>
            </g>
            <path d="M166.188,51.53 C163.52,54.19 163.52,58.518 166.188,61.182 L177.492,72.495 L177.492,83.319 L170.668,83.319 C166.898,83.319 163.84,86.377 163.84,90.147 C163.84,93.913 166.898,96.971 170.668,96.971 L178.461,96.971 C181.512,108.713 192.117,117.452 204.801,117.452 C217.484,117.452 228.086,108.713 231.137,96.971 L238.934,96.971 C242.703,96.971 245.762,93.913 245.762,90.147 C245.762,86.377 242.703,83.319 238.934,83.319 L232.105,83.319 L232.105,72.498 L243.418,61.182 C246.082,58.514 246.082,54.19 243.41,51.522 C240.75,48.866 236.422,48.858 233.758,51.53 L222.445,62.842 L211.629,62.842 L211.629,49.186 C211.629,45.42 208.57,42.362 204.801,42.362 C201.031,42.362 197.973,45.42 197.973,49.186 L197.973,62.838 L187.148,62.838 L175.844,51.53 C173.172,48.866 168.852,48.866 166.188,51.53 Z M191.145,90.112 L191.145,76.495 L218.453,76.495 L218.453,90.147 C218.453,97.678 212.328,103.799 204.801,103.799 C197.277,103.799 191.16,97.69 191.145,90.166 C191.145,90.163 191.152,90.155 191.152,90.147 C191.152,90.131 191.145,90.127 191.145,90.112 Z" id="Fill-5" fill="#000000"></path>
        </g>
    </g>
</svg>