<?xml version="1.0" encoding="UTF-8"?>
<svg width="409px" height="410px" viewBox="0 0 409 410" version="1.1" xmlns="http://www.w3.org/2000/svg" xmlns:xlink="http://www.w3.org/1999/xlink">
    <!-- Generator: Sketch 49.3 (51167) - http://www.bohemiancoding.com/sketch -->
    <title>leaning-tower-of-pisa</title>
    <desc>Created with Sketch.</desc>
    <defs></defs>
    <g id="Page-1" stroke="none" stroke-width="1" fill="none" fill-rule="evenodd">
        <path d="M401.633,396.347 L234.23,396.347 L240.484,351.722 C241.008,348 244.449,345.367 248.199,345.914 C251.926,346.437 254.527,349.89 254,353.613 C253.902,354.324 254.008,355.007 254.125,355.675 L251.508,375.246 C251.012,378.988 253.633,382.421 257.367,382.917 C257.672,382.96 257.98,382.98 258.281,382.98 C261.652,382.98 264.582,380.484 265.039,377.054 L300.457,111.957 C300.945,108.242 298.355,104.816 294.641,104.289 L289.152,103.519 L297.711,42.652 C297.965,40.855 297.488,39.039 296.402,37.593 C295.309,36.152 293.691,35.199 291.895,34.945 L217.777,24.527 L220.625,8.414 C221.281,4.703 218.805,1.167 215.09,0.503 C211.383,-0.137 207.84,2.332 207.184,6.039 L204.254,22.628 L183.727,19.742 C179.957,19.195 176.543,21.824 176.02,25.55 L167.465,86.39 L160.715,85.441 C156.875,84.882 153.523,87.523 153,91.25 L143.504,158.828 C143.504,158.835 143.496,158.839 143.496,158.855 L143.496,158.882 L124.496,294.042 C124.492,294.05 124.492,294.058 124.492,294.058 L124.492,294.07 L110.121,396.347 L6.828,396.347 C3.051,396.347 0,399.406 0,403.175 C0,406.941 3.051,410 6.828,410 L401.633,410 C405.406,410 408.461,406.941 408.461,403.175 C408.461,399.406 405.406,396.347 401.633,396.347 Z M145.844,338.39 L137.426,396.347 L123.91,396.347 L132.312,336.523 C132.312,336.523 132.32,336.519 132.32,336.511 C132.574,334.71 133.516,333.113 134.969,332.019 C136.426,330.914 138.227,330.441 140.023,330.71 C143.758,331.234 146.371,334.687 145.844,338.39 Z M199.918,346.007 L192.766,396.347 L179.031,396.347 L186.402,344.125 C186.93,340.394 190.367,337.773 194.117,338.308 C197.844,338.832 200.445,342.292 199.918,346.007 Z M226.961,349.824 L220.445,396.347 L206.562,396.347 L213.441,347.917 C215.02,336.746 207.203,326.367 196.012,324.789 C184.789,323.207 174.457,331.042 172.879,342.21 L165.238,396.347 L151.223,396.347 L159.363,340.32 C160.934,329.144 153.113,318.769 141.918,317.187 C139.57,316.867 137.258,317.015 134.996,317.464 L137.066,302.718 L238.48,316.968 C238.797,317.015 239.117,317.035 239.426,317.035 C240.898,317.035 242.348,316.558 243.535,315.656 C244.98,314.57 245.938,312.953 246.191,311.156 L251.883,270.601 C252.41,266.867 249.801,263.41 246.066,262.886 C242.332,262.324 238.887,264.976 238.359,268.695 L233.613,302.5 L220.09,300.597 L224.844,266.796 C225.367,263.062 222.762,259.609 219.027,259.089 C215.266,258.542 211.844,261.164 211.32,264.898 L206.574,298.699 L193.051,296.8 L197.801,262.996 C198.328,259.269 195.719,255.812 191.984,255.289 C188.23,254.722 184.797,257.371 184.277,261.097 L179.535,294.898 L166.016,293.007 L170.762,259.199 C171.289,255.464 168.68,252.011 164.945,251.484 C161.199,250.933 157.766,253.57 157.238,257.3 L152.492,291.101 L138.969,289.195 L146.566,235.121 L247.965,249.371 C248.293,249.417 248.613,249.437 248.926,249.437 C252.277,249.437 255.199,246.972 255.68,243.558 L261.387,202.996 C261.91,199.269 259.316,195.812 255.582,195.289 C251.734,194.726 248.395,197.371 247.867,201.097 L243.109,234.898 L229.594,233 L234.344,199.199 C234.871,195.464 232.277,192.019 228.543,191.484 C224.707,190.941 221.348,193.57 220.828,197.296 L216.078,231.101 L202.555,229.195 L207.305,195.398 C207.836,191.664 205.234,188.214 201.5,187.691 C197.672,187.125 194.312,189.765 193.789,193.5 L189.035,227.3 L175.512,225.402 L180.266,191.601 C180.797,187.867 178.195,184.414 174.461,183.886 C170.641,183.335 167.273,185.96 166.746,189.699 L161.996,223.496 L148.465,221.597 L156.07,167.511 L257.48,181.765 C257.797,181.804 258.117,181.828 258.43,181.828 C259.898,181.828 261.344,181.355 262.531,180.453 C263.98,179.371 264.938,177.746 265.188,175.957 L270.883,135.39 C271.406,131.656 268.801,128.203 265.066,127.683 C261.332,127.132 257.891,129.761 257.359,133.496 L252.613,167.292 L239.098,165.394 L243.844,131.589 C244.367,127.863 241.762,124.41 238.027,123.882 C234.266,123.343 230.852,125.964 230.32,129.691 L225.574,163.492 L212.059,161.593 L216.801,127.796 C217.328,124.062 214.719,120.605 210.988,120.082 C207.23,119.519 203.812,122.171 203.285,125.898 L198.535,159.695 L185.02,157.8 L189.762,123.992 C190.289,120.257 187.68,116.804 183.945,116.285 C180.207,115.738 176.77,118.359 176.246,122.093 L171.496,155.902 L157.977,153.996 L165.574,99.914 L172.328,100.863 C176.145,101.425 179.516,98.781 180.043,95.054 L188.594,34.214 L283.234,47.515 L275.629,101.617 L262.113,99.718 L266.871,65.89 C267.395,62.164 264.797,58.71 261.062,58.183 C257.238,57.617 253.879,60.265 253.348,63.992 L248.59,97.808 L235.07,95.902 L239.828,62.097 C240.355,58.363 237.754,54.914 234.02,54.382 C230.211,53.835 226.84,56.464 226.312,60.191 L221.547,94.003 L208.039,92.101 L212.789,58.292 C213.312,54.558 210.715,51.113 206.988,50.585 C203.137,50.054 199.797,52.66 199.273,56.394 L193.566,96.953 C193.039,100.687 195.633,104.136 199.367,104.667 L286.023,116.867 L256.922,334.707 C254.84,333.582 252.566,332.742 250.098,332.39 C238.879,330.804 228.535,338.64 226.961,349.824 Z" id="leaning-tower-of-pisa" fill="#000000"></path>
    </g>
</svg>