<?xml version="1.0" encoding="UTF-8"?>
<svg width="410px" height="301px" viewBox="0 0 410 301" version="1.1" xmlns="http://www.w3.org/2000/svg" xmlns:xlink="http://www.w3.org/1999/xlink">
    <!-- Generator: Sketch 49.3 (51167) - http://www.bohemiancoding.com/sketch -->
    <title>sydney-opera-house</title>
    <desc>Created with Sketch.</desc>
    <defs>
        <polygon id="path-1" points="0.06 0.348 409.598 0.348 409.598 14 0.06 14"></polygon>
    </defs>
    <g id="Page-1" stroke="none" stroke-width="1" fill="none" fill-rule="evenodd">
        <g id="sydney-opera-house" transform="translate(0.000000, -1.000000)">
            <g id="Group-3" transform="translate(0.000000, 288.000000)">
                <mask id="mask-2" fill="white">
                    <use xlink:href="#path-1"></use>
                </mask>
                <g id="Clip-2"></g>
                <path d="M402.773,0.348 L6.828,0.348 C3.059,0.348 0,3.407 0,7.172 C0,10.942 3.059,14 6.828,14 L402.773,14 C406.547,14 409.598,10.942 409.598,7.172 C409.598,3.407 406.547,0.348 402.773,0.348 Z" id="Fill-1" fill="#000000" mask="url(#mask-2)"></path>
            </g>
            <path d="M27.34,241.243 C27.688,244.731 30.625,247.387 34.133,247.387 L375.469,247.387 C379.242,247.387 382.293,244.328 382.293,240.559 C382.293,236.793 379.242,233.735 375.469,233.735 L348.48,233.735 C349.574,217.903 354.496,176.856 376.41,136.121 C368.758,183.969 368.641,211.856 368.641,213.254 C368.641,217.024 371.691,220.082 375.469,220.082 C379.242,220.082 382.293,217.024 382.293,213.254 C382.293,212.852 382.449,172.2 395.816,105.368 C395.945,104.703 395.945,104.028 395.879,103.371 C395.871,103.305 395.898,103.235 395.895,103.168 C395.879,103.063 395.816,102.969 395.797,102.868 C395.68,102.184 395.477,101.536 395.156,100.922 C395.109,100.832 395.094,100.739 395.039,100.649 C395.027,100.629 395.031,100.61 395.02,100.586 C395.012,100.575 395,100.575 394.992,100.559 C394.707,100.071 394.363,99.61 393.945,99.203 C393.816,99.063 393.641,98.977 393.504,98.852 C393.43,98.786 393.395,98.696 393.312,98.637 C393.293,98.621 393.27,98.621 393.258,98.61 C393.176,98.547 393.074,98.512 392.984,98.457 C392.363,98.02 391.695,97.68 390.973,97.473 C390.938,97.469 390.902,97.442 390.863,97.434 C390.785,97.414 390.699,97.434 390.629,97.414 C389.953,97.262 389.27,97.223 388.562,97.278 C388.465,97.289 388.371,97.25 388.266,97.262 C388.207,97.27 388.152,97.305 388.098,97.309 C387.988,97.332 387.887,97.317 387.781,97.336 C386.398,97.618 251.371,125.922 233.133,233.735 L165.566,233.735 C186.254,149.243 257.074,103.973 300.758,83.536 C256.969,125.493 246.602,155.016 246.117,156.485 C244.922,160.047 246.848,163.891 250.41,165.094 C251.125,165.34 251.863,165.453 252.586,165.453 C255.426,165.453 258.09,163.661 259.051,160.825 C259.168,160.493 269.219,132.598 310.844,92.805 C307.301,103.528 307.199,110.348 307.199,110.856 C307.199,114.602 310.223,117.625 313.98,117.653 C313.992,117.653 314.012,117.661 314.027,117.661 C317.754,117.661 320.801,114.637 320.855,110.903 C320.855,110.774 321.121,101.516 327.68,87.446 L327.68,97.2 C327.68,100.969 330.73,104.028 334.508,104.028 C338.281,104.028 341.332,100.969 341.332,97.2 L341.332,63.067 C341.332,62.922 341.242,62.801 341.238,62.657 C341.219,62.325 341.191,62.004 341.121,61.676 C341.039,61.293 340.895,60.938 340.746,60.575 C340.656,60.344 340.617,60.098 340.492,59.879 C340.371,59.653 340.223,59.469 340.07,59.258 C339.977,59.114 339.953,58.942 339.84,58.801 C339.648,58.559 339.379,58.446 339.164,58.235 C339.074,58.153 339.012,58.051 338.93,57.969 C338.812,57.871 338.766,57.727 338.652,57.641 C338.645,57.633 338.629,57.633 338.617,57.625 C338.609,57.618 338.609,57.614 338.602,57.606 C338.465,57.504 338.301,57.489 338.16,57.391 C337.758,57.133 337.332,56.957 336.895,56.793 C336.574,56.668 336.281,56.496 335.945,56.43 C335.824,56.403 335.699,56.395 335.57,56.383 C335.184,56.313 334.793,56.348 334.391,56.356 C333.961,56.364 333.543,56.368 333.121,56.457 C333.055,56.473 332.977,56.457 332.914,56.473 C332.848,56.493 332.777,56.465 332.711,56.477 C332.703,56.477 332.676,56.493 332.672,56.493 C332.664,56.493 332.656,56.496 332.648,56.496 C330.062,57.215 182.191,99.559 151.598,233.731 L83.488,233.731 C104.367,138.438 182.191,71.668 230.27,38.516 C186.238,93.641 171.664,140.657 170.953,143.028 C169.867,146.637 171.922,150.442 175.535,151.524 C176.188,151.723 176.844,151.813 177.5,151.813 C180.434,151.813 183.145,149.907 184.031,146.946 C184.191,146.411 197.523,103.328 237,52.086 C232.242,69.516 232.105,82.575 232.105,83.547 C232.105,87.313 235.156,90.371 238.934,90.371 C242.707,90.371 245.758,87.313 245.758,83.547 C245.758,83.231 245.973,58.121 259.414,31.692 L259.414,69.891 C259.414,73.661 262.465,76.719 266.238,76.719 C270.016,76.719 273.066,73.661 273.066,69.891 L273.066,8.453 C273.066,8.289 273.012,8.133 272.996,7.961 C272.984,7.77 272.957,7.594 272.938,7.395 C272.867,6.977 272.766,6.571 272.621,6.172 C272.559,5.996 272.492,5.825 272.41,5.653 C272.367,5.559 272.34,5.45 272.293,5.356 C272.258,5.293 272.254,5.231 272.219,5.172 C271.918,4.625 271.535,4.125 271.098,3.684 C271.086,3.668 271.078,3.641 271.066,3.629 C271.012,3.578 270.949,3.559 270.895,3.512 C270.832,3.457 270.758,3.411 270.695,3.356 C270.621,3.286 270.586,3.192 270.504,3.121 C270.426,3.063 270.336,3.047 270.254,2.993 C270.102,2.883 269.988,2.746 269.824,2.645 C269.59,2.504 269.332,2.426 269.086,2.313 C268.914,2.235 268.758,2.149 268.578,2.086 C268.43,2.032 268.301,1.957 268.145,1.914 C268.066,1.887 267.98,1.895 267.891,1.868 C267.387,1.743 266.879,1.661 266.363,1.649 C266.219,1.649 266.094,1.676 265.953,1.684 C265.898,1.684 265.836,1.696 265.789,1.696 C265.609,1.711 265.453,1.719 265.277,1.739 C264.844,1.801 264.422,1.914 264.008,2.059 C263.836,2.121 263.672,2.168 263.508,2.235 C263.406,2.286 263.289,2.297 263.188,2.344 C256.457,5.711 100.051,85.563 69.562,233.735 L40.312,233.735 L28.168,112.258 C43.922,117.051 69.805,133.028 84.781,143.719 C87.852,145.895 92.105,145.192 94.305,142.125 C96.496,139.063 95.785,134.793 92.715,132.606 C92.02,132.106 90.488,131.036 88.434,129.614 L82.883,84.176 C100.168,86.75 119.609,96.368 119.828,96.485 C123.207,98.172 127.305,96.797 128.992,93.426 C130.668,90.055 129.305,85.957 125.934,84.262 C124.758,83.684 96.934,69.895 75.094,69.895 C73.141,69.895 71.277,70.735 69.988,72.196 C68.691,73.661 68.082,75.61 68.312,77.547 L73.48,119.836 C57.086,109.637 34.262,97.2 20.48,97.2 C18.547,97.2 16.711,98.02 15.422,99.446 C14.125,100.879 13.496,102.786 13.688,104.707 L27.34,241.243 Z M363.391,131.43 C340.426,174.786 335.715,217.453 334.754,233.735 L308.211,233.735 C311.27,215.813 322.914,168.539 363.391,131.43 Z M352.168,123.067 C308.164,164.321 296.973,215.922 294.332,233.735 L246.914,233.735 C258.582,171.77 313.719,138.817 352.168,123.067 Z" id="Fill-4" fill="#000000"></path>
            <path d="M20.48,274.692 L389.121,274.692 C392.895,274.692 395.945,271.637 395.945,267.868 C395.945,264.098 392.895,261.039 389.121,261.039 L20.48,261.039 C16.711,261.039 13.652,264.098 13.652,267.868 C13.652,271.637 16.711,274.692 20.48,274.692 Z" id="Fill-5" fill="#000000"></path>
        </g>
    </g>
</svg>