<?xml version="1.0" encoding="UTF-8"?>
<svg width="410px" height="410px" viewBox="0 0 410 410" version="1.1" xmlns="http://www.w3.org/2000/svg" xmlns:xlink="http://www.w3.org/1999/xlink">
    <!-- Generator: Sketch 49.3 (51167) - http://www.bohemiancoding.com/sketch -->
    <title>windmill</title>
    <desc>Created with Sketch.</desc>
    <defs>
        <polygon id="path-1" points="0.06 0.399 409.598 0.399 409.598 410.002 0.06 410.002"></polygon>
    </defs>
    <g id="Page-1" stroke="none" stroke-width="1" fill="none" fill-rule="evenodd">
        <g id="windmill">
            <g id="Group-5">
                <mask id="mask-2" fill="white">
                    <use xlink:href="#path-1"></use>
                </mask>
                <g id="Clip-2"></g>
                <path d="M327.68,307.599 C327.68,303.834 324.629,300.775 320.855,300.775 L291.09,300.775 C288.715,295.724 286.496,290.513 284.578,285.127 C283.309,281.58 279.41,279.72 275.844,280.99 C272.297,282.259 270.445,286.158 271.707,289.716 C273.047,293.462 274.508,297.158 276.059,300.775 L133.539,300.775 C146.691,270.076 149.484,241.392 150.059,229.716 C150.242,225.947 147.34,222.748 143.574,222.564 C139.824,222.4 136.609,225.279 136.418,229.048 C135.988,238.099 133.367,269.197 118.566,300.775 L88.746,300.775 C84.973,300.775 81.922,303.834 81.922,307.603 C81.922,311.369 84.973,314.427 88.746,314.427 L320.855,314.427 C324.629,314.427 327.68,311.369 327.68,307.599 Z" id="Fill-1" fill="#000000" mask="url(#mask-2)"></path>
                <path d="M97.574,244.162 C98.906,245.494 100.652,246.162 102.398,246.162 C104.148,246.162 105.895,245.494 107.227,244.162 L204.801,146.587 L297.547,239.334 L279.895,256.99 L207.625,184.72 L216.453,175.892 C219.125,173.224 219.125,168.908 216.453,166.24 C213.785,163.572 209.469,163.572 206.801,166.24 L193.148,179.896 C190.477,182.564 190.477,186.877 193.148,189.548 L275.066,271.466 C276.398,272.798 278.145,273.466 279.895,273.466 C281.641,273.466 283.391,272.798 284.719,271.466 L312.027,244.162 C314.695,241.49 314.695,237.177 312.027,234.509 L214.453,136.935 L307.199,44.189 L324.855,61.841 L252.586,134.107 L243.758,125.279 C241.09,122.611 236.773,122.611 234.105,125.279 C231.438,127.951 231.438,132.263 234.105,134.935 L247.762,148.587 C249.09,149.92 250.84,150.587 252.586,150.587 C254.336,150.587 256.082,149.92 257.414,148.587 L339.332,66.666 C342,63.998 342,59.681 339.332,57.013 L312.027,29.709 C309.359,27.037 305.043,27.037 302.375,29.709 L204.801,127.283 L112.055,34.533 L129.707,16.88 L201.973,89.146 L193.145,97.974 C190.477,100.646 190.477,104.959 193.145,107.627 C195.816,110.298 200.129,110.298 202.801,107.627 L216.453,93.974 C219.121,91.306 219.121,86.99 216.453,84.322 L134.531,2.4 C131.863,-0.268 127.547,-0.268 124.879,2.4 L97.574,29.709 C94.906,32.377 94.906,36.693 97.574,39.361 L195.148,136.935 L102.398,229.681 L84.746,212.029 L157.012,139.759 L165.84,148.587 C168.512,151.255 172.824,151.255 175.492,148.587 C178.164,145.92 178.164,141.603 175.492,138.935 L161.84,125.283 C159.172,122.611 154.855,122.611 152.188,125.283 L70.266,207.201 C67.598,209.873 67.598,214.185 70.266,216.853 L97.574,244.162 Z" id="Fill-3" fill="#000000" mask="url(#mask-2)"></path>
                <path d="M402.773,396.345 L273.066,396.345 L273.066,344.56 L284.719,332.908 C287.387,330.236 287.387,325.923 284.719,323.255 C282.051,320.584 277.734,320.584 275.066,323.255 L261.414,336.908 C260.129,338.185 259.414,339.927 259.414,341.736 L259.414,396.349 L150.188,396.349 L150.188,341.736 C150.188,339.927 149.469,338.185 148.188,336.908 L134.531,323.255 C131.863,320.584 127.547,320.584 124.879,323.255 C122.211,325.923 122.211,330.24 124.879,332.908 L136.531,344.56 L136.531,396.345 L6.828,396.345 C3.051,396.345 0,399.404 0,403.173 C0,406.943 3.051,410.002 6.828,410.002 L402.773,410.002 C406.547,410.002 409.598,406.943 409.598,403.173 C409.598,399.404 406.547,396.345 402.773,396.345 Z" id="Fill-4" fill="#000000" mask="url(#mask-2)"></path>
            </g>
            <path d="M218.453,273.466 C222.23,273.466 225.281,270.408 225.281,266.642 L225.281,239.334 C225.281,235.568 222.23,232.509 218.453,232.509 L191.148,232.509 C187.371,232.509 184.32,235.568 184.32,239.334 L184.32,266.642 C184.32,270.408 187.371,273.466 191.148,273.466 L218.453,273.466 Z M197.973,259.814 L211.629,259.814 L211.629,246.162 L197.973,246.162 L197.973,259.814 Z" id="Fill-6" fill="#000000"></path>
            <path d="M197.973,348.56 L197.973,362.212 C197.973,365.982 201.023,369.041 204.801,369.041 C208.574,369.041 211.625,365.982 211.625,362.212 L211.625,348.56 C211.625,344.795 208.574,341.736 204.801,341.736 C201.023,341.736 197.973,344.795 197.973,348.56 Z" id="Fill-7" fill="#000000"></path>
        </g>
    </g>
</svg>