<?xml version="1.0" encoding="UTF-8"?>
<svg width="410px" height="410px" viewBox="0 0 410 410" version="1.1" xmlns="http://www.w3.org/2000/svg" xmlns:xlink="http://www.w3.org/1999/xlink">
    <!-- Generator: Sketch 49.3 (51167) - http://www.bohemiancoding.com/sketch -->
    <title>big-ben (1)</title>
    <desc>Created with Sketch.</desc>
    <defs>
        <polygon id="path-1" points="0.06 0.4 409.598 0.4 409.598 410.002 0.06 410.002"></polygon>
    </defs>
    <g id="Page-1" stroke="none" stroke-width="1" fill="none" fill-rule="evenodd">
        <g id="big-ben-(1)">
            <g id="Group-3">
                <mask id="mask-2" fill="white">
                    <use xlink:href="#path-1"></use>
                </mask>
                <g id="Clip-2"></g>
                <path d="M402.773,396.345 L259.414,396.345 L259.414,232.505 C259.414,228.74 256.363,225.681 252.586,225.681 C248.812,225.681 245.762,228.74 245.762,232.505 L245.762,396.345 L225.281,396.345 L225.281,334.908 C225.281,331.138 222.23,328.08 218.453,328.08 C214.68,328.08 211.629,331.138 211.629,334.908 L211.629,396.345 L197.973,396.345 L197.973,334.908 C197.973,331.138 194.922,328.08 191.148,328.08 C187.371,328.08 184.32,331.138 184.32,334.908 L184.32,396.345 L163.84,396.345 L163.84,314.427 L232.109,314.427 C235.883,314.427 238.934,311.369 238.934,307.599 C238.934,303.834 235.883,300.775 232.109,300.775 L225.281,300.775 L225.281,239.334 C225.281,235.564 222.23,232.505 218.453,232.505 C214.68,232.505 211.629,235.564 211.629,239.334 L211.629,300.775 L197.973,300.775 L197.973,239.334 C197.973,235.564 194.922,232.505 191.148,232.505 C187.371,232.505 184.32,235.564 184.32,239.334 L184.32,300.775 L163.84,300.775 L163.84,218.853 L266.242,218.853 C270.016,218.853 273.066,215.795 273.066,212.029 L273.066,75.494 C273.066,71.724 270.016,68.666 266.242,68.666 C262.465,68.666 259.414,71.724 259.414,75.494 L259.414,205.201 L150.188,205.201 L150.188,95.974 L245.762,95.974 C249.535,95.974 252.586,92.916 252.586,89.146 C252.586,85.38 249.535,82.322 245.762,82.322 L243.152,82.322 L231.391,58.791 C230.23,56.474 227.867,55.013 225.281,55.013 L211.625,55.013 L211.625,7.228 C211.625,3.459 208.574,0.4 204.801,0.4 C201.023,0.4 197.973,3.459 197.973,7.228 L197.973,55.013 L184.32,55.013 C181.734,55.013 179.371,56.474 178.211,58.787 L166.449,82.322 L150.188,82.322 L150.188,75.494 C150.188,71.724 147.137,68.666 143.359,68.666 C139.586,68.666 136.535,71.724 136.535,75.494 L136.535,212.029 C136.535,215.795 139.586,218.853 143.359,218.853 L150.188,218.853 L150.188,396.345 L6.828,396.345 C3.051,396.345 0,399.404 0,403.173 C0,406.943 3.051,410.002 6.828,410.002 L402.773,410.002 C406.547,410.002 409.598,406.943 409.598,403.173 C409.598,399.404 406.547,396.345 402.773,396.345 Z M188.539,68.666 L221.062,68.666 L227.887,82.322 L181.711,82.322 L188.539,68.666 Z" id="Fill-1" fill="#000000" mask="url(#mask-2)"></path>
            </g>
            <path d="M197.973,136.935 L197.973,150.587 C197.973,152.396 198.691,154.138 199.973,155.412 L206.801,162.24 C208.133,163.572 209.879,164.24 211.625,164.24 C213.375,164.24 215.121,163.572 216.453,162.24 C219.121,159.572 219.121,155.255 216.453,152.587 L211.625,147.759 L211.625,136.935 C211.625,133.166 208.574,130.107 204.801,130.107 C201.023,130.107 197.973,133.166 197.973,136.935 Z" id="Fill-4" fill="#000000"></path>
            <path d="M163.84,150.587 C163.84,173.177 182.211,191.545 204.801,191.545 C227.391,191.545 245.762,173.177 245.762,150.587 C245.762,127.998 227.391,109.627 204.801,109.627 C182.211,109.627 163.84,127.998 163.84,150.587 Z M232.105,150.587 C232.105,165.646 219.859,177.892 204.801,177.892 C189.738,177.892 177.492,165.646 177.492,150.587 C177.492,135.529 189.738,123.279 204.801,123.279 C219.859,123.279 232.105,135.529 232.105,150.587 Z" id="Fill-5" fill="#000000"></path>
        </g>
    </g>
</svg>